<mxfile host="app.diagrams.net" modified="2022-02-05T14:47:30.097Z" agent="5.0 (Windows NT 10.0; Win64; x64) AppleWebKit/537.36 (KHTML, like Gecko) Chrome/97.0.4692.99 Safari/537.36" etag="gHs4MXxv_KuWWCCMjXqd" version="16.5.3" type="github">
  <diagram id="ppC3WurOay8H34TdvDAJ" name="Page-1">
    <mxGraphModel dx="782" dy="468" grid="1" gridSize="10" guides="1" tooltips="1" connect="1" arrows="1" fold="1" page="1" pageScale="1" pageWidth="827" pageHeight="1169" math="0" shadow="0">
      <root>
        <mxCell id="0" />
        <mxCell id="1" parent="0" />
        <mxCell id="KogJu50rw8vjcazW-HNV-1" value="C - Account Details" style="rounded=0;whiteSpace=wrap;html=1;" vertex="1" parent="1">
          <mxGeometry x="150" y="200" width="120" height="60" as="geometry" />
        </mxCell>
        <mxCell id="KogJu50rw8vjcazW-HNV-2" value="Master Item List" style="rounded=0;whiteSpace=wrap;html=1;" vertex="1" parent="1">
          <mxGeometry x="150" y="400" width="120" height="60" as="geometry" />
        </mxCell>
        <mxCell id="KogJu50rw8vjcazW-HNV-4" value="Login - SMS Gateway" style="rounded=0;whiteSpace=wrap;html=1;" vertex="1" parent="1">
          <mxGeometry x="150" y="300" width="120" height="60" as="geometry" />
        </mxCell>
        <mxCell id="KogJu50rw8vjcazW-HNV-5" value="PG" style="shape=cylinder3;whiteSpace=wrap;html=1;boundedLbl=1;backgroundOutline=1;size=15;" vertex="1" parent="1">
          <mxGeometry x="360" y="190" width="60" height="80" as="geometry" />
        </mxCell>
        <mxCell id="KogJu50rw8vjcazW-HNV-6" value="PG" style="shape=cylinder3;whiteSpace=wrap;html=1;boundedLbl=1;backgroundOutline=1;size=15;" vertex="1" parent="1">
          <mxGeometry x="360" y="290" width="60" height="80" as="geometry" />
        </mxCell>
        <mxCell id="KogJu50rw8vjcazW-HNV-7" value="Cache" style="shape=cylinder3;whiteSpace=wrap;html=1;boundedLbl=1;backgroundOutline=1;size=15;" vertex="1" parent="1">
          <mxGeometry x="360" y="390" width="60" height="80" as="geometry" />
        </mxCell>
        <mxCell id="KogJu50rw8vjcazW-HNV-8" value="Customer Request or Accept" style="rounded=0;whiteSpace=wrap;html=1;" vertex="1" parent="1">
          <mxGeometry x="150" y="510" width="120" height="60" as="geometry" />
        </mxCell>
        <mxCell id="KogJu50rw8vjcazW-HNV-9" value="Queue" style="rounded=0;whiteSpace=wrap;html=1;" vertex="1" parent="1">
          <mxGeometry x="330" y="510" width="120" height="60" as="geometry" />
        </mxCell>
        <mxCell id="KogJu50rw8vjcazW-HNV-10" value="PG" style="shape=cylinder3;whiteSpace=wrap;html=1;boundedLbl=1;backgroundOutline=1;size=15;" vertex="1" parent="1">
          <mxGeometry x="550" y="500" width="60" height="80" as="geometry" />
        </mxCell>
        <mxCell id="KogJu50rw8vjcazW-HNV-12" value="Merchant Process" style="rounded=0;whiteSpace=wrap;html=1;" vertex="1" parent="1">
          <mxGeometry x="150" y="740" width="120" height="60" as="geometry" />
        </mxCell>
        <mxCell id="KogJu50rw8vjcazW-HNV-13" value="Map and Merchants" style="rounded=0;whiteSpace=wrap;html=1;" vertex="1" parent="1">
          <mxGeometry x="150" y="630" width="120" height="60" as="geometry" />
        </mxCell>
        <mxCell id="KogJu50rw8vjcazW-HNV-14" value="PG" style="shape=cylinder3;whiteSpace=wrap;html=1;boundedLbl=1;backgroundOutline=1;size=15;" vertex="1" parent="1">
          <mxGeometry x="360" y="620" width="60" height="80" as="geometry" />
        </mxCell>
      </root>
    </mxGraphModel>
  </diagram>
</mxfile>
